<?xml version="1.0" encoding="utf-8"?>
<!-- Generator: Adobe Illustrator 26.0.3, SVG Export Plug-In . SVG Version: 6.00 Build 0)  -->
<svg version="1.1" id="Layer_1" xmlns="http://www.w3.org/2000/svg" xmlns:xlink="http://www.w3.org/1999/xlink" x="0px" y="0px"
	 viewBox="0 0 1000 1000" style="enable-background:new 0 0 1000 1000;" xml:space="preserve">
<style type="text/css">
	.st0{fill:#1D1D1B;}
</style>
<path class="st0" d="M733.8,693.6c-5.3,5.3-15.5,4.9-27.5-0.2L523.9,510.9c2.1-3.7,2.5-7.2,0.8-8.9c-1.5-1.5-4.3-1.4-7.4,0
	c0.3-1.1,0.4-2.3,0.4-3.5c0-1-0.1-2.1-0.3-3.1c2,0.3,3.7,0,4.7-1.1c1.6-1.8,1-5.2-1.3-8.9l106.3-119.7c8.7-2.4,17-1.5,22.6,3.6
	c2.5-18.5,3.9-28.8,6.4-47.3c-18,4.6-28.2,7.3-46.2,11.9c5.7,5,7.6,13.1,6.2,22L509.7,475.7c-3.9-1.8-7.3-2.1-9-0.2
	c-1.5,1.7-1.1,4.7,0.8,7.9c-8,0.5-14.3,7.1-14.3,15.2c0,8.4,6.8,15.2,15.2,15.2c0.9,0,1.8-0.1,2.7-0.3c-1.9,3.6-2.3,6.9-0.6,8.6
	c1.7,1.7,5.2,1.3,8.9-0.8l182.5,182.5c5.1,12,5.6,22.1,0.2,27.5c24.7,10,38.6,15.6,63.3,25.6l0,0
	C749.5,732.3,743.8,718.2,733.8,693.6z"/>
<g>
</g>
<g>
</g>
<g>
</g>
<g>
</g>
<g>
</g>
<g>
</g>
</svg>
