<?xml version="1.0" encoding="utf-8"?>
<!-- Generator: Adobe Illustrator 26.0.3, SVG Export Plug-In . SVG Version: 6.00 Build 0)  -->
<svg version="1.1" id="Layer_1" xmlns="http://www.w3.org/2000/svg" xmlns:xlink="http://www.w3.org/1999/xlink" x="0px" y="0px"
	 viewBox="0 0 1000 1000" style="enable-background:new 0 0 1000 1000;" xml:space="preserve">
<style type="text/css">
	.st0{fill:none;}
	.st1{fill:none;stroke:#1D1D1B;stroke-width:2;stroke-miterlimit:10;}
	.st2{fill:#1D1D1B;}
</style>
<g>
	<g>
		
			<ellipse transform="matrix(0.859 -0.512 0.512 0.859 -184.2937 324.4934)" class="st0" cx="496.9" cy="496.8" rx="288.9" ry="289.6"/>
		<path d="M476.3,144.1l21.5,52.6c1,2.4,2.8,3.6,4.2,4.4l1.2,0.7c1.4,0.7,1.9,1.4,2,2.4c0.1,1-0.4,1.7-2.4,1.8l-17.8,1.3
			c-1.8,0.1-2.2-0.7-2.3-1.7c-0.1-1,0.4-1.7,1.7-2.5l2.4-1.3c1.4-0.8,0.9-1.9-0.1-4.3l-16-39.6l-11.9,41.6c-0.8,2.6-1.1,3.8,0.5,4.3
			l2.6,1c1.4,0.6,1.9,1.2,2,2.2c0.1,1-0.2,1.9-2,2l-13.5,1c-2,0.1-2.5-0.5-2.6-1.5s0.4-1.7,1.7-2.6l1.1-0.9c1.3-0.9,2.7-2.4,3.5-4.9
			l14.9-51.4l-18.7-46c-1-2.4-2.8-3.6-4.2-4.4l-1.2-0.7c-1.4-0.7-1.9-1.4-2-2.4s0.4-1.7,2.4-1.8l17.8-1.3c1.8-0.1,2.2,0.7,2.3,1.7
			c0.1,1-0.4,1.7-1.7,2.5l-2.4,1.3c-1.4,0.8-0.9,1.9,0.1,4.3l13.4,33l10.1-34.7c0.7-2.6,1.1-3.8-0.5-4.3l-2.6-1
			c-1.4-0.6-1.9-1.2-2-2.2c-0.1-1,0.2-1.9,2-2l13.5-1c2-0.1,2.5,0.5,2.6,1.5c0.1,1-0.4,1.7-1.7,2.6l-1.1,0.9
			c-1.3,0.9-2.7,2.4-3.5,4.9L476.3,144.1z"/>
		<path d="M508,207.5c-2-0.1-2.4-1-2.4-2c0.1-1,0.8-1.6,2-2.2l1.6-0.7c1.4-0.7,2-2.2,2.2-4.5l7-97.1c0.2-2.3-0.2-3.9-1.5-4.8
			l-1.4-0.9c-1.1-0.7-1.7-1.5-1.7-2.5s0.6-1.8,2.6-1.7l16.5,1.2c2,0.1,2.4,1,2.4,2c-0.1,1-0.8,1.6-2,2.2l-1.6,0.7
			c-1.4,0.7-2,2.2-2.2,4.5l-7,97.1c-0.2,2.3,0.2,3.9,1.5,4.8l1.4,0.9c1.1,0.7,1.7,1.5,1.7,2.5c-0.1,1-0.6,1.8-2.6,1.7L508,207.5z"/>
		<path d="M533.7,209.7c-2-0.3-2.3-1.2-2.2-2.2c0.2-1,0.9-1.5,2.2-2l1.6-0.6c1.4-0.6,2.2-2,2.6-4.3l15.6-96.1
			c0.4-2.3,0.1-3.9-1.1-4.9l-1.3-1.1c-1-0.8-1.6-1.6-1.4-2.6c0.2-1,0.8-1.7,2.8-1.4l16.3,2.6c2,0.3,2.3,1.2,2.2,2.2
			c-0.2,1-0.9,1.5-2.2,2l-1.6,0.6c-1.5,0.6-2.2,2-2.6,4.3l-15.6,96.1c-0.4,2.3-0.1,3.9,1.1,4.9l1.3,1.1c1,0.8,1.6,1.6,1.4,2.6
			c-0.2,1-0.8,1.7-2.8,1.4L533.7,209.7z"/>
		<path d="M643.6,247.5c-1.7-1.1-1.7-2-1.1-2.9c0.5-0.8,1.5-1.1,2.8-1l1.7,0.1c1.6,0,2.8-1,4-3l52-82.3c1.2-2,1.6-3.5,0.9-4.9
			l-0.8-1.5c-0.6-1.2-0.8-2.1-0.3-3c0.5-0.8,1.4-1.3,3.1-0.2l14,8.8c1.7,1.1,1.7,2,1.1,2.9s-1.5,1.1-2.8,1l-1.7-0.1
			c-1.6,0-2.8,1-4,3l-52,82.3c-1.2,2-1.6,3.5-0.9,4.9l0.8,1.5c0.6,1.2,0.8,2.1,0.3,3c-0.5,0.8-1.4,1.3-3.1,0.2L643.6,247.5z"/>
		<path d="M729.7,325.5c-1.1-1.6-0.7-2.5,0.1-3.1c0.8-0.6,1.8-0.4,3,0.2l1.5,0.8c1.4,0.6,3,0.2,4.9-1.1l80.2-55.2
			c1.9-1.3,2.9-2.6,2.8-4.2l-0.2-1.7c-0.1-1.3,0.1-2.3,0.9-2.8c0.8-0.6,1.8-0.6,2.9,1l9.4,13.6c1.1,1.6,0.7,2.5-0.1,3.1
			c-0.8,0.6-1.8,0.4-3-0.2l-1.5-0.8c-1.4-0.6-3-0.2-4.9,1.1l-80.2,55.2c-1.9,1.3-2.9,2.6-2.8,4.2l0.2,1.7c0.1,1.3-0.1,2.3-0.9,2.8
			c-0.8,0.6-1.8,0.6-2.9-1L729.7,325.5z"/>
		<path d="M743.9,346.8c-1-1.7-0.5-2.6,0.4-3.1c0.9-0.5,1.8-0.2,2.9,0.4l1.5,0.9c1.4,0.7,2.9,0.4,5-0.7l84.7-48
			c2-1.2,3.1-2.3,3.2-3.9l0-1.7c0-1.3,0.3-2.3,1.1-2.7c0.9-0.5,1.8-0.5,2.8,1.3l8.2,14.3c1,1.7,0.5,2.6-0.4,3.1
			c-0.9,0.5-1.8,0.2-2.9-0.4l-1.5-0.9c-1.4-0.7-2.9-0.4-5,0.7l-84.7,48c-2,1.2-3.1,2.3-3.2,3.9l0,1.7c0,1.3-0.3,2.3-1.1,2.7
			c-0.9,0.5-1.8,0.5-2.8-1.3L743.9,346.8z"/>
		<path d="M783.3,456.4c-0.2-2,0.5-2.6,1.5-2.7s1.7,0.5,2.5,1.6l1,1.4c1,1.2,2.5,1.6,4.8,1.3l96.8-10.8c2.3-0.3,3.8-0.9,4.4-2.3
			l0.7-1.6c0.5-1.2,1.1-2,2.1-2.1c1-0.1,1.9,0.3,2.1,2.3l1.9,16.4c0.2,2-0.5,2.6-1.5,2.7c-1,0.1-1.7-0.5-2.5-1.6l-1-1.4
			c-1-1.2-2.5-1.6-4.8-1.3L794.4,469c-2.3,0.3-3.8,0.9-4.4,2.3l-0.7,1.6c-0.5,1.2-1.1,2-2.1,2.1c-1,0.1-1.9-0.3-2.1-2.3L783.3,456.4
			z"/>
		<path d="M785.8,482.1c0-2,0.8-2.5,1.8-2.5c1,0,1.7,0.6,2.4,1.8l0.9,1.5c0.9,1.3,2.4,1.8,4.7,1.7l97.4-2.1c2.3-0.1,3.8-0.6,4.6-1.9
			l0.8-1.5c0.6-1.2,1.3-1.9,2.3-1.9c1,0,1.8,0.5,1.9,2.5l0.4,16.5c0,2-0.8,2.5-1.8,2.5c-1,0-1.7-0.6-2.4-1.8l-0.9-1.5
			c-0.9-1.3-2.4-1.8-4.7-1.7l-97.4,2.1c-2.3,0.1-3.8,0.6-4.6,1.9l-0.8,1.5c-0.6,1.2-1.3,1.9-2.3,1.9c-1,0-1.8-0.5-1.9-2.5
			L785.8,482.1z"/>
		<path d="M786,507.9c0.1-2,1-2.4,2-2.4c1,0.1,1.6,0.8,2.2,2l0.7,1.6c0.7,1.4,2.2,2,4.5,2.1l97.2,6.6c2.3,0.2,3.9-0.2,4.8-1.5
			l0.9-1.4c0.7-1.1,1.5-1.7,2.4-1.7c1,0.1,1.8,0.6,1.7,2.6l-1.1,16.5c-0.1,2-1,2.4-2,2.4c-1-0.1-1.6-0.8-2.2-2l-0.7-1.6
			c-0.7-1.4-2.2-2-4.5-2.1l-97.2-6.6c-2.3-0.2-3.9,0.2-4.8,1.5l-0.9,1.4c-0.7,1.1-1.5,1.7-2.4,1.7c-1-0.1-1.8-0.6-1.7-2.6L786,507.9
			z"/>
		<path d="M767.4,599.9c0.8-1.9,1.7-2,2.6-1.6s1.3,1.3,1.5,2.6l0.2,1.7c0.3,1.5,1.5,2.6,3.6,3.5l90,37.1c2.2,0.9,3.7,1,5,0.1
			l1.3-1.1c1.1-0.8,1.9-1.2,2.9-0.8c0.9,0.4,1.5,1.2,0.7,3l-6.3,15.3c-0.8,1.9-1.7,2-2.6,1.6c-0.9-0.4-1.3-1.2-1.5-2.6l-0.2-1.7
			c-0.3-1.6-1.5-2.6-3.6-3.5l-90-37.1c-2.2-0.9-3.7-1-5-0.1l-1.3,1.1c-1.1,0.8-1.9,1.2-2.9,0.8c-0.9-0.4-1.5-1.2-0.7-3L767.4,599.9z
			"/>
		<path d="M752.7,640.1l98,37c2.7,1,4,0.8,5.4,0l1.5-0.9c1.2-0.7,2.1-0.9,2.9-0.4c0.9,0.5,1.3,1.3,0.3,3.1l-10.1,17.5
			c-1,1.7-2,1.8-2.8,1.3c-0.9-0.5-1.3-1.3-1.1-2.8l0.4-3.4c0.2-1.6-0.5-2.8-2.7-3.7L772.8,660l59.9,48.3c1.9,1.5,3.9,1.6,5,0.7
			l1.9-1.6c1-0.8,2.1-0.9,2.9-0.4c0.9,0.5,1.3,1.3,0.3,3.1l-6.6,11.4c-1,1.7-2,1.8-2.8,1.3c-0.9-0.5-1.1-1.4-1.1-2.8l0-1.7
			c0.1-1.9-0.8-3.3-2.6-4.8l-80.9-66.8c-3.3-2.7-4.7-4.6-3.7-6.3C746.4,638.3,748.7,638.6,752.7,640.1z"/>
		<path d="M676.6,728.7l75.5,72.6c2.1,2,3.4,2.3,4.9,2.1l1.7-0.2c1.3-0.2,2.3,0,2.9,0.8c0.6,0.8,0.7,1.8-0.9,3L744.6,819
			c-1.6,1.2-2.5,0.8-3.1,0c-0.6-0.8-0.7-1.8,0.1-3l1.7-3c0.8-1.4,0.6-2.8-1-4.4l-55-53.8l36.1,68c1.1,2.1,2.9,3,4.3,2.6l2.4-0.7
			c1.2-0.3,2.3,0,2.9,0.8c0.6,0.8,0.7,1.8-0.9,3l-10.5,7.9c-1.6,1.2-2.5,0.8-3.1,0c-0.6-0.8-0.5-1.7,0.1-3l0.7-1.6
			c0.8-1.7,0.6-3.4-0.5-5.4l-48.1-93.2c-2-3.7-2.5-6.1-0.9-7.3C671.6,724.5,673.5,725.8,676.6,728.7z"/>
		<path d="M535.6,787.5l28.6,100.8c0.8,2.8,1.8,3.7,3.2,4.3l1.6,0.7c1.2,0.5,2,1.1,2.1,2.1c0.1,1-0.3,1.9-2.3,2.1l-20,2.3
			c-2,0.2-2.6-0.5-2.7-1.5c-0.1-1,0.3-1.9,1.6-2.5l3-1.7c1.4-0.8,1.9-2.1,1.3-4.4l-20.3-74.2l-3.2,76.9c-0.1,2.4,1,4.1,2.4,4.4
			l2.4,0.6c1.2,0.4,2,1.1,2.1,2.1c0.1,1-0.3,1.9-2.3,2.1l-13.1,1.5c-2,0.2-2.6-0.5-2.7-1.5c-0.1-1,0.5-1.7,1.6-2.5l1.4-1
			c1.6-1,2.2-2.6,2.3-5l5.5-104.7c0.2-4.2,0.9-6.5,2.9-6.7C533.4,781.4,534.5,783.4,535.6,787.5z"/>
		<path d="M501.1,786.4c2,0,2.5,0.9,2.5,1.9c0,1-0.7,1.7-1.9,2.3l-1.5,0.8c-1.3,0.8-1.9,2.3-1.9,4.6l-1.9,97.4
			c0,2.3,0.4,3.8,1.8,4.7l1.5,0.9c1.2,0.7,1.8,1.4,1.8,2.4c0,1-0.5,1.8-2.5,1.8l-16.5-0.3c-2,0-2.5-0.9-2.5-1.9c0-1,0.7-1.7,1.9-2.3
			l1.5-0.8c1.3-0.8,1.9-2.3,1.9-4.6l1.9-97.4c0-2.3-0.4-3.8-1.8-4.7l-1.5-0.9c-1.2-0.7-1.8-1.4-1.8-2.4c0-1,0.5-1.8,2.5-1.8
			L501.1,786.4z"/>
		<path d="M391.3,770l-23.2,102.1c-0.6,2.8-0.2,4.1,0.7,5.3l1.1,1.3c0.8,1.1,1.2,1.9,0.8,2.9c-0.4,0.9-1.2,1.5-3,0.8l-18.7-7.6
			c-1.9-0.8-2-1.7-1.6-2.6c0.4-0.9,1.2-1.5,2.6-1.5l3.4,0c1.6-0.1,2.7-0.9,3.3-3.2l17.7-74.9l-39.7,66c-1.2,2-1.1,4.1-0.1,5l1.8,1.7
			c0.9,0.9,1.2,1.9,0.8,2.9c-0.4,0.9-1.2,1.5-3,0.8l-12.2-4.9c-1.9-0.8-2-1.7-1.6-2.6s1.2-1.3,2.6-1.5l1.7-0.2
			c1.9-0.1,3.2-1.2,4.4-3.3l55.1-89.2c2.2-3.6,3.9-5.2,5.8-4.5C392.3,763.5,392.3,765.9,391.3,770z"/>
		<path d="M367.7,755.6c1.8,0.9,1.8,1.9,1.3,2.8c-0.5,0.9-1.4,1.2-2.7,1.2l-1.7,0c-1.6,0.1-2.7,1.2-3.8,3.2l-46.2,85.7
			c-1.1,2.1-1.4,3.6-0.6,5l0.9,1.4c0.7,1.1,1,2,0.5,2.9c-0.5,0.9-1.3,1.4-3.1,0.4l-14.5-7.8c-1.8-0.9-1.8-1.9-1.3-2.8
			c0.5-0.9,1.4-1.2,2.7-1.2l1.7,0c1.6-0.1,2.7-1.2,3.8-3.2l46.2-85.7c1.1-2.1,1.4-3.6,0.6-5l-0.9-1.4c-0.7-1.1-1-2-0.5-2.9
			c0.5-0.9,1.3-1.4,3.1-0.4L367.7,755.6z"/>
		<path d="M347.1,744.2c1.7,1.1,1.6,2.1,1.1,2.9c-0.5,0.8-1.5,1-2.8,1l-1.7-0.1c-1.6,0-2.8,1-4.1,2.9l-53.1,81.7
			c-1.3,2-1.7,3.5-1,4.9l0.8,1.5c0.6,1.2,0.8,2.1,0.3,3c-0.5,0.8-1.4,1.3-3.1,0.2l-13.9-9c-1.7-1.1-1.6-2.1-1.1-2.9
			c0.5-0.8,1.5-1,2.8-1l1.7,0.1c1.6,0,2.8-1,4.1-2.9l53.1-81.7c1.3-2,1.7-3.5,1-4.9l-0.8-1.5c-0.6-1.2-0.8-2.1-0.3-3
			c0.5-0.8,1.4-1.3,3.1-0.2L347.1,744.2z"/>
		<path d="M262.7,672.2l-73.9,74.3c-2,2.1-2.3,3.3-2.2,4.9l0.2,1.7c0.1,1.3,0,2.3-0.8,2.9s-1.8,0.7-3-1l-11.8-16.3
			c-1.2-1.6-0.8-2.5,0-3.1c0.8-0.6,1.8-0.7,3,0.1l2.9,1.8c1.4,0.8,2.8,0.7,4.5-1l54.7-54.1l-68.6,34.9c-2.1,1.1-3.1,2.9-2.7,4.2
			l0.7,2.4c0.3,1.2,0,2.3-0.8,2.9c-0.8,0.6-1.8,0.7-3-0.9l-7.7-10.7c-1.2-1.6-0.8-2.5,0-3.1c0.8-0.6,1.7-0.4,3,0.1l1.6,0.7
			c1.7,0.9,3.4,0.7,5.4-0.4l94-46.5c3.8-1.9,6.1-2.4,7.3-0.7C267,667.3,265.7,669.2,262.7,672.2z"/>
		<path d="M250.8,648.3c1,1.7,0.5,2.6-0.3,3.1c-0.9,0.5-1.8,0.3-2.9-0.4L246,650c-1.4-0.7-2.9-0.4-5,0.7l-84.5,48.4
			c-2,1.2-3.1,2.3-3.1,3.9l0,1.7c0,1.3-0.2,2.3-1.1,2.8c-0.9,0.5-1.8,0.5-2.8-1.3l-8.2-14.3c-1-1.7-0.5-2.6,0.3-3.1
			c0.9-0.5,1.8-0.3,2.9,0.4l1.5,0.9c1.4,0.7,2.9,0.4,5-0.7l84.5-48.4c2-1.2,3.1-2.3,3.1-3.9l0-1.7c0-1.3,0.2-2.3,1.1-2.8
			c0.9-0.5,1.8-0.5,2.8,1.3L250.8,648.3z"/>
		<path d="M239.5,628.1c0.9,1.8,0.3,2.6-0.6,3c-0.9,0.4-1.8,0.1-2.9-0.7l-1.4-1c-1.3-0.8-2.9-0.7-5,0.4l-88,41.7
			c-2.1,1-3.2,2.1-3.4,3.7L138,677c-0.1,1.3-0.4,2.2-1.3,2.7c-0.9,0.4-1.9,0.3-2.7-1.5l-7.1-14.9c-0.9-1.8-0.3-2.6,0.6-3
			c0.9-0.4,1.8-0.1,2.9,0.7l1.4,1c1.3,0.8,2.9,0.7,5-0.4l88-41.7c2.1-1,3.2-2.1,3.4-3.7l0.1-1.7c0.1-1.3,0.4-2.2,1.3-2.7
			c0.9-0.4,1.9-0.3,2.7,1.5L239.5,628.1z"/>
		<path d="M229.9,607.4c0.7,1.9,0.1,2.6-0.8,3c-0.9,0.4-1.8,0-2.8-0.9l-1.3-1.1c-1.3-0.9-2.8-0.9-5,0l-91,34.7
			c-2.2,0.8-3.4,1.8-3.7,3.4l-0.2,1.7c-0.2,1.3-0.6,2.2-1.5,2.5c-0.9,0.4-1.9,0.2-2.6-1.7l-5.9-15.4c-0.7-1.9-0.1-2.6,0.8-3
			c0.9-0.4,1.8,0,2.8,0.9l1.3,1.1c1.3,0.9,2.8,0.9,5,0l91-34.7c2.2-0.8,3.4-1.8,3.7-3.4l0.2-1.7c0.2-1.3,0.6-2.2,1.5-2.5
			c0.9-0.4,1.9-0.2,2.6,1.7L229.9,607.4z"/>
		<path d="M208.6,519.3c0.1,2-0.7,2.5-1.7,2.6c-1,0.1-1.7-0.6-2.4-1.7l-0.9-1.5c-0.9-1.3-2.4-1.7-4.8-1.6l-97.3,4.7
			c-2.3,0.1-3.8,0.7-4.6,2.1l-0.8,1.5c-0.6,1.2-1.2,1.9-2.2,1.9c-1,0-1.9-0.4-2-2.4l-0.8-16.5c-0.1-2,0.7-2.5,1.7-2.6
			c1-0.1,1.7,0.6,2.4,1.7l0.9,1.5c0.9,1.3,2.4,1.7,4.8,1.6l97.3-4.7c2.3-0.1,3.8-0.7,4.6-2.1l0.8-1.5c0.6-1.2,1.2-1.9,2.2-1.9
			s1.9,0.4,2,2.4L208.6,519.3z"/>
		<path d="M146,459l55.4-12.7c2.6-0.6,4-2.1,5-3.4l0.9-1.1c1-1.3,1.7-1.7,2.7-1.6c1,0.1,1.6,0.6,1.4,2.6l-1.6,17.8
			c-0.2,1.8-1,2.1-2,2c-1-0.1-1.6-0.6-2.2-2l-0.9-2.6c-0.5-1.6-1.7-1.2-4.3-0.6l-41.7,9.4l39.2,18.5c2.4,1.2,3.5,1.7,4.3,0.2
			l1.4-2.4c0.8-1.3,1.5-1.7,2.5-1.6c1,0.1,1.8,0.5,1.6,2.3l-1.2,13.5c-0.2,2-0.9,2.4-1.9,2.3c-1-0.1-1.6-0.7-2.3-2.1l-0.7-1.2
			c-0.7-1.4-1.9-3-4.3-4.2l-48.3-23l-48.4,11c-2.6,0.6-4,2.1-5,3.4l-0.9,1.1c-1,1.3-1.7,1.7-2.7,1.6c-1-0.1-1.6-0.6-1.4-2.6
			l1.6-17.8c0.2-1.8,1-2.1,2-2c1,0.1,1.6,0.6,2.2,2l0.9,2.6c0.5,1.6,1.7,1.2,4.3,0.6l34.7-7.9l-32.6-15.5c-2.4-1.1-3.5-1.7-4.3-0.2
			l-1.4,2.4c-0.8,1.3-1.5,1.7-2.5,1.6c-1-0.1-1.8-0.5-1.6-2.3l1.2-13.5c0.2-2,0.9-2.4,1.9-2.3c1,0.1,1.6,0.6,2.3,2.1l0.7,1.2
			c0.7,1.4,1.9,3,4.3,4.2L146,459z"/>
		<path d="M193.3,316.2l55.7,11.4c2.6,0.5,4.6-0.3,6-1l1.3-0.6c1.4-0.7,2.2-0.9,3.1-0.4c0.9,0.5,1.2,1.3,0.2,3l-8.8,15.5
			c-0.9,1.6-1.8,1.5-2.7,1c-0.9-0.5-1.2-1.3-1.1-2.8l0.2-2.8c0.2-1.6-1.1-1.8-3.7-2.3l-41.9-8.7l28,33.1c1.7,2.1,2.5,3,3.8,2
			l2.3-1.6c1.2-0.8,2.1-0.9,2.9-0.4c0.9,0.5,1.4,1.2,0.5,2.8l-6.7,11.7c-1,1.7-1.8,1.8-2.7,1.3c-0.9-0.5-1.2-1.3-1.3-2.8l-0.1-1.4
			c-0.1-1.6-0.5-3.5-2.2-5.6l-34.4-41l-48.6-10.1c-2.6-0.5-4.6,0.3-6,1l-1.3,0.6c-1.4,0.7-2.2,0.8-3.1,0.4c-0.9-0.5-1.2-1.3-0.2-3
			l8.8-15.5c0.9-1.6,1.8-1.5,2.7-1c0.9,0.5,1.2,1.3,1.1,2.8l-0.2,2.8c-0.2,1.6,1.1,1.8,3.7,2.3l34.9,7.2l-23.2-27.6
			c-1.8-2-2.5-3-3.8-2l-2.3,1.6c-1.2,0.8-2.1,0.9-2.9,0.4s-1.4-1.2-0.5-2.8l6.7-11.7c1-1.7,1.8-1.8,2.7-1.3c0.9,0.5,1.2,1.3,1.3,2.8
			l0.1,1.4c0.1,1.6,0.5,3.5,2.2,5.6L193.3,316.2z"/>
		<path d="M298.8,204.2l45.4,34.2c2.1,1.6,4.2,1.7,5.8,1.6l1.4,0c1.6-0.1,2.4,0.2,2.9,1c0.6,0.8,0.5,1.7-1.1,2.8L338.7,254
			c-1.5,1.1-2.3,0.6-2.8-0.3c-0.6-0.8-0.5-1.7,0.2-3l1.4-2.4c0.8-1.4-0.2-2.1-2.3-3.7L301,218.9l11.1,41.9c0.6,2.6,1,3.8,2.6,3.5
			l2.7-0.5c1.5-0.2,2.3,0,2.8,0.9c0.6,0.8,0.8,1.7-0.7,2.7l-11.1,7.7c-1.6,1.1-2.4,0.9-3,0.1c-0.6-0.8-0.5-1.7,0.1-3.1l0.5-1.4
			c0.6-1.4,1.1-3.4,0.5-6L293,212.9L253.4,183c-2.1-1.6-4.2-1.7-5.8-1.6l-1.4,0c-1.6,0.1-2.4-0.2-2.9-1c-0.6-0.8-0.5-1.7,1.1-2.8
			l14.6-10.2c1.5-1.1,2.3-0.6,2.8,0.3c0.6,0.8,0.5,1.7-0.2,3l-1.4,2.4c-0.8,1.4,0.2,2.1,2.3,3.6l28.4,21.5l-9.1-34.9
			c-0.7-2.5-1-3.8-2.6-3.5l-2.7,0.5c-1.5,0.2-2.3,0-2.8-0.9c-0.6-0.8-0.8-1.7,0.7-2.7l11.1-7.7c1.6-1.1,2.4-0.9,3-0.1
			c0.6,0.8,0.5,1.7-0.1,3.1l-0.5,1.4c-0.6,1.4-1.1,3.4-0.5,6L298.8,204.2z"/>
		<path d="M358.5,242.2c-1.8,0.9-2.6,0.4-3.1-0.5c-0.5-0.9-0.2-1.8,0.6-2.9l1-1.4c0.8-1.3,0.6-2.9-0.5-5l-43.9-86.9
			c-1.1-2.1-2.2-3.2-3.8-3.3l-1.7-0.1c-1.3-0.1-2.2-0.4-2.7-1.3c-0.5-0.9-0.4-1.9,1.4-2.8l14.7-7.5c1.8-0.9,2.6-0.4,3.1,0.5
			c0.5,0.9,0.2,1.8-0.6,2.9l-1,1.4c-0.8,1.3-0.6,2.9,0.5,5l43.9,86.9c1.1,2.1,2.2,3.2,3.7,3.3l1.7,0.1c1.3,0.1,2.2,0.4,2.7,1.3
			c0.5,0.9,0.4,1.9-1.4,2.8L358.5,242.2z"/>
	</g>
	<g>
		<circle class="st1" cx="501.3" cy="499.8" r="434"/>
		<circle class="st2" cx="500" cy="499.8" r="12.7"/>
		<rect x="487.6" y="44.3" class="st2" width="13.7" height="21.5"/>
		<rect x="708.6" y="104.1" transform="matrix(0.5 -0.866 0.866 0.5 263.5326 678.4287)" class="st2" width="21.5" height="13.7"/>
		<rect x="870.5" y="263.3" transform="matrix(0.866 -0.5 0.5 0.866 -17.0191 476.8053)" class="st2" width="21.5" height="13.7"/>
		<rect x="936.2" y="483.1" class="st2" width="21.5" height="13.7"/>
		<rect x="888" y="700.2" transform="matrix(0.5 -0.866 0.866 0.5 -168.2351 1130.4238)" class="st2" width="13.7" height="21.5"/>
		<rect x="730.8" y="867.9" transform="matrix(0.866 -0.5 0.5 0.866 -340.4987 486.5284)" class="st2" width="13.7" height="21.5"/>
		<rect x="507.1" y="933.6" class="st2" width="13.7" height="21.5"/>
		<rect x="282.3" y="887.4" transform="matrix(0.5 -0.866 0.866 0.5 -627.9169 700.855)" class="st2" width="21.5" height="13.7"/>
		<rect x="114.5" y="728.2" transform="matrix(0.866 -0.5 0.5 0.866 -350.7415 161.1097)" class="st2" width="21.5" height="13.7"/>
		<rect x="46.9" y="506.5" class="st2" width="21.5" height="13.7"/>
		<rect x="102.8" y="275.8" transform="matrix(0.5 -0.866 0.866 0.5 -193.3102 238.2646)" class="st2" width="13.7" height="21.5"/>
		<rect x="265.9" y="110" transform="matrix(0.866 -0.5 0.5 0.866 -23.8336 152.5463)" class="st2" width="13.7" height="21.5"/>
		<rect x="494.5" y="46.2" class="st2" width="2.5" height="20.8"/>
		
			<rect x="531.6" y="57.3" transform="matrix(0.1045 -0.9945 0.9945 0.1045 427.1648 591.4788)" class="st2" width="20.8" height="2.5"/>
		
			<rect x="577.5" y="64.1" transform="matrix(0.2079 -0.9781 0.9781 0.2079 401.7745 626.8364)" class="st2" width="20.8" height="2.5"/>
		
			<rect x="622.5" y="75.7" transform="matrix(0.309 -0.9511 0.9511 0.309 364.143 655.0273)" class="st2" width="20.8" height="2.5"/>
		
			<rect x="665.9" y="91.9" transform="matrix(0.4067 -0.9135 0.9135 0.4067 316.174 673.1001)" class="st2" width="20.8" height="2.5"/>
		<rect x="707.5" y="112.5" transform="matrix(0.5 -0.866 0.866 0.5 260.4017 678.5819)" class="st2" width="20.8" height="2.5"/>
		
			<rect x="746.6" y="137.4" transform="matrix(0.5878 -0.809 0.809 0.5878 199.8746 669.6052)" class="st2" width="20.8" height="2.5"/>
		
			<rect x="783" y="166.3" transform="matrix(0.6691 -0.7431 0.7431 0.6691 138.0158 645.007)" class="st2" width="20.8" height="2.5"/>
		
			<rect x="816.1" y="198.8" transform="matrix(0.7431 -0.6691 0.6691 0.7431 78.4652 604.3972)" class="st2" width="20.8" height="2.5"/>
		
			<rect x="845.6" y="234.5" transform="matrix(0.809 -0.5878 0.5878 0.809 24.9096 548.191)" class="st2" width="20.8" height="2.5"/>
		
			<rect x="892.7" y="314.3" transform="matrix(0.9135 -0.4067 0.4067 0.9135 -50.2674 394.6234)" class="st2" width="20.8" height="2.5"/>
		
			<rect x="909.8" y="357.5" transform="matrix(0.9511 -0.309 0.309 0.9511 -65.8087 301.9114)" class="st2" width="20.8" height="2.5"/>
		
			<rect x="922.2" y="402.2" transform="matrix(0.9781 -0.2079 0.2079 0.9781 -63.4914 202.7213)" class="st2" width="20.8" height="2.5"/>
		
			<rect x="929.9" y="447.9" transform="matrix(0.9945 -0.1045 0.1045 0.9945 -41.7978 100.7528)" class="st2" width="20.8" height="2.5"/>
		
			<rect x="940" y="531.4" transform="matrix(0.1045 -0.9945 0.9945 0.1045 304.015 1421.262)" class="st2" width="2.5" height="20.8"/>
		
			<rect x="935.1" y="577.3" transform="matrix(0.2079 -0.9781 0.9781 0.2079 166.8297 1381.421)" class="st2" width="2.5" height="20.8"/>
		
			<rect x="925.5" y="622.2" transform="matrix(0.309 -0.9511 0.9511 0.309 38.6939 1318.5188)" class="st2" width="2.5" height="20.8"/>
		
			<rect x="909.3" y="665.7" transform="matrix(0.4067 -0.9135 0.9135 0.4067 -77.464 1232.9237)" class="st2" width="2.5" height="20.8"/>
		
			<rect x="859.9" y="746.4" transform="matrix(0.5878 -0.809 0.809 0.5878 -257.3012 1008.6171)" class="st2" width="2.5" height="20.8"/>
		
			<rect x="831" y="782.7" transform="matrix(0.6691 -0.7431 0.7431 0.6691 -314.045 880.9193)" class="st2" width="2.5" height="20.8"/>
		
			<rect x="798.6" y="815.9" transform="matrix(0.7431 -0.6691 0.6691 0.7431 -347.4493 747.3878)" class="st2" width="2.5" height="20.8"/>
		
			<rect x="762.8" y="845.4" transform="matrix(0.809 -0.5878 0.5878 0.809 -357.1188 612.5198)" class="st2" width="2.5" height="20.8"/>
		
			<rect x="683" y="892.5" transform="matrix(0.9135 -0.4067 0.4067 0.9135 -308.0969 356.3584)" class="st2" width="2.5" height="20.8"/>
		
			<rect x="639.8" y="909.6" transform="matrix(0.9511 -0.309 0.309 0.9511 -252.9095 243.1278)" class="st2" width="2.5" height="20.8"/>
		
			<rect x="595.1" y="922" transform="matrix(0.9781 -0.2079 0.2079 0.9781 -180.8271 144.3687)" class="st2" width="2.5" height="20.8"/>
		
			<rect x="549.4" y="929.7" transform="matrix(0.9945 -0.1045 0.1045 0.9945 -95.2525 62.7059)" class="st2" width="2.5" height="20.8"/>
		
			<rect x="447.6" y="941.7" transform="matrix(0.1045 -0.9945 0.9945 0.1045 -527.6966 1299.8485)" class="st2" width="20.8" height="2.5"/>
		
			<rect x="401.7" y="934.9" transform="matrix(0.2079 -0.9781 0.9781 0.2079 -589.2909 1144.5795)" class="st2" width="20.8" height="2.5"/>
		
			<rect x="356.7" y="921.4" transform="matrix(0.309 -0.9511 0.9511 0.309 -623.789 986.7017)" class="st2" width="20.8" height="2.5"/>
		
			<rect x="313.3" y="905.2" transform="matrix(0.4067 -0.9135 0.9135 0.4067 -636.0455 833.4421)" class="st2" width="20.8" height="2.5"/>
		
			<rect x="232.6" y="859.7" transform="matrix(0.5878 -0.809 0.809 0.5878 -596.3132 551.4413)" class="st2" width="20.8" height="2.5"/>
		
			<rect x="196.2" y="830.8" transform="matrix(0.6691 -0.7431 0.7431 0.6691 -549.9573 428.8585)" class="st2" width="20.8" height="2.5"/>
		
			<rect x="163.1" y="798.3" transform="matrix(0.7431 -0.6691 0.6691 0.7431 -490.4399 321.4731)" class="st2" width="20.8" height="2.5"/>
		
			<rect x="133.6" y="762.6" transform="matrix(0.809 -0.5878 0.5878 0.809 -421.4477 230.4914)" class="st2" width="20.8" height="2.5"/>
		
			<rect x="86.5" y="682.8" transform="matrix(0.9135 -0.4067 0.4067 0.9135 -269.8319 98.5289)" class="st2" width="20.8" height="2.5"/>
		
			<rect x="69.4" y="639.6" transform="matrix(0.9511 -0.309 0.309 0.9511 -194.1259 56.027)" class="st2" width="20.8" height="2.5"/>
		
			<rect x="57" y="594.9" transform="matrix(0.9781 -0.2079 0.2079 0.9781 -122.4745 27.033)" class="st2" width="20.8" height="2.5"/>
		
			<rect x="49.3" y="549.2" transform="matrix(0.9945 -0.1045 0.1045 0.9945 -57.2056 9.2513)" class="st2" width="20.8" height="2.5"/>
		
			<rect x="57.5" y="447.3" transform="matrix(0.1045 -0.9945 0.9945 0.1045 -402.6183 468.329)" class="st2" width="2.5" height="20.8"/>
		
			<rect x="64.3" y="401.5" transform="matrix(0.2079 -0.9781 0.9781 0.2079 -350.9134 390.3556)" class="st2" width="2.5" height="20.8"/>
		
			<rect x="75.9" y="356.5" transform="matrix(0.309 -0.9511 0.9511 0.309 -295.6602 326.8985)" class="st2" width="2.5" height="20.8"/>
		
			<rect x="92.1" y="313" transform="matrix(0.4067 -0.9135 0.9135 0.4067 -240.1068 277.1613)" class="st2" width="2.5" height="20.8"/>
		
			<rect x="137.7" y="232.4" transform="matrix(0.5878 -0.809 0.809 0.5878 -139.1374 212.4294)" class="st2" width="2.5" height="20.8"/>
		
			<rect x="166.5" y="196" transform="matrix(0.6691 -0.7431 0.7431 0.6691 -97.8964 192.9462)" class="st2" width="2.5" height="20.8"/>
		
			<rect x="199" y="162.9" transform="matrix(0.7431 -0.6691 0.6691 0.7431 -64.5253 178.4826)" class="st2" width="2.5" height="20.8"/>
		
			<rect x="234.8" y="133.3" transform="matrix(0.809 -0.5878 0.5878 0.809 -39.4193 166.1626)" class="st2" width="2.5" height="20.8"/>
		<rect x="273.4" y="107.7" transform="matrix(0.866 -0.5 0.5 0.866 -22.2513 153.1468)" class="st2" width="2.5" height="20.8"/>
		
			<rect x="314.6" y="86.2" transform="matrix(0.9135 -0.4067 0.4067 0.9135 -12.0024 136.7939)" class="st2" width="2.5" height="20.8"/>
		
			<rect x="357.7" y="69.2" transform="matrix(0.9511 -0.309 0.309 0.9511 -7.0251 114.8107)" class="st2" width="2.5" height="20.8"/>
		
			<rect x="402.4" y="56.7" transform="matrix(0.9781 -0.2079 0.2079 0.9781 -5.1388 85.3856)" class="st2" width="2.5" height="20.8"/>
		
			<rect x="448.1" y="49" transform="matrix(0.9945 -0.1045 0.1045 0.9945 -3.7509 47.2982)" class="st2" width="2.5" height="20.8"/>
		<path class="st2" d="M520.6,964.3c-3.5,0-20.7,0.1-24.2,0c-123-1.1-238.2-50.1-324.4-137.9c-26.5-27-49.3-56.7-68.1-88.4l8.7-4.9
			c77.9,131.3,220.5,220,383.9,221.5c3.5,0,20.5,0,24,0L520.6,964.3z"/>
		<path class="st2" d="M891.3,249.1c1.8,3.1,10.4,17.9,12.1,21c60.5,107.1,75.7,231.3,42.8,349.9c-10.1,36.5-24.4,71-42.5,103.2
			l-8.6-5.1c74.7-133.1,80.3-300.9-0.1-443.2c-1.7-3-10.2-17.8-12-20.8L891.3,249.1z"/>
		<path class="st2" d="M108.7,746.6c-1.8-3.1-10.4-17.9-12.1-21C36.1,618.5,20.9,494.3,53.8,375.7C63.9,339.3,78.9,303.2,97,271
			l8.6,5.1C30.8,409.1,24.6,578.5,105,720.8c1.7,3,10.2,17.8,12,20.8L108.7,746.6z"/>
		<path class="st2" d="M256.6,107.6c3.1-1.8,17.9-10.4,21-12.1c107.1-60.5,231.3-75.7,349.9-42.8c42.4,11.8,82,27.3,109,42.5
			l-5.8,9.9c-133.1-74.7-306-81.7-448.3-1.2c-3,1.7-17.8,10.2-20.8,12L256.6,107.6z"/>
	</g>
</g>
<g>
</g>
<g>
</g>
<g>
</g>
<g>
</g>
<g>
</g>
<g>
</g>
</svg>
